<?xml version="1.0" standalone="no"?>
<!DOCTYPE svg PUBLIC "-//W3C//DTD SVG 20010904//EN"
 "http://www.w3.org/TR/2001/REC-SVG-20010904/DTD/svg10.dtd">
<svg version="1.0" xmlns="http://www.w3.org/2000/svg"
 width="700.000000pt" height="700.000000pt" viewBox="0 0 700.000000 700.000000"
 preserveAspectRatio="xMidYMid meet">
<metadata>
Created by potrace 1.14, written by Peter Selinger 2001-2017
</metadata>
<g transform="translate(0.000000,700.000000) scale(0.100000,-0.100000)"
fill="#000000" stroke="none">
<path d="M331 5380 c-139 -38 -252 -148 -306 -295 -27 -75 -34 -427 -10 -479
49 -103 189 -112 252 -17 21 32 23 45 23 190 1 210 12 252 83 305 27 20 41 20
695 21 367 0 677 -1 689 -3 18 -3 23 -13 28 -56 4 -28 9 -60 12 -71 4 -23 4
-20 67 -365 25 -140 48 -266 51 -280 6 -30 24 -133 31 -175 2 -16 9 -50 14
-75 5 -25 16 -85 25 -135 9 -49 24 -135 35 -190 10 -55 16 -102 14 -104 -2 -2
-381 -5 -842 -6 -819 -2 -838 -2 -893 -22 -120 -44 -199 -116 -257 -233 l-37
-75 -3 -271 c-4 -305 2 -356 52 -459 54 -110 139 -186 256 -232 42 -16 237
-17 3170 -19 2595 -1 3134 1 3178 12 161 42 281 166 326 339 19 73 15 211 -8
273 -8 23 -48 111 -87 195 -178 378 -227 481 -323 681 -42 87 -76 160 -76 162
0 20 -231 470 -277 539 -236 357 -542 609 -913 750 -120 46 -216 71 -375 97
-51 8 -676 11 -2303 12 -2017 1 -2238 0 -2291 -14z m2750 -279 c4 -1 9 -18 13
-38 4 -21 11 -63 16 -93 6 -30 12 -66 15 -80 3 -14 16 -86 29 -160 14 -74 27
-148 30 -165 3 -16 26 -140 50 -275 54 -297 49 -269 87 -469 16 -90 28 -166
25 -169 -7 -7 -995 -9 -1005 -2 -4 3 -15 50 -25 105 -10 55 -24 132 -32 170
-7 39 -16 86 -19 105 -3 19 -12 71 -20 115 -18 99 -73 401 -79 435 -2 14 -7
36 -10 50 -3 14 -8 41 -10 60 -3 19 -21 118 -40 220 -18 102 -30 187 -26 190
7 4 979 5 1001 1z m1314 -3 c5 -5 37 -158 49 -239 5 -31 136 -759 151 -834 3
-16 10 -55 15 -85 6 -30 12 -66 15 -80 10 -52 35 -195 35 -205 0 -7 -175 -10
-505 -10 -441 0 -506 2 -510 15 -2 8 -11 60 -21 115 -9 55 -18 109 -20 120 -3
11 -13 70 -24 130 -11 61 -22 121 -25 135 -3 14 -12 63 -20 110 -8 47 -17 94
-19 105 -2 11 -14 74 -25 140 -12 66 -26 140 -31 165 -5 25 -12 63 -15 85 -4
22 -9 51 -11 65 -3 14 -15 79 -28 145 -12 66 -19 122 -15 125 10 7 997 5 1004
-2z m450 -3 c39 -3 88 -10 110 -15 22 -5 52 -11 66 -13 54 -10 240 -77 311
-113 74 -37 220 -128 248 -155 8 -8 36 -31 62 -52 74 -59 164 -154 240 -252
106 -136 148 -212 318 -570 151 -319 318 -672 355 -750 166 -351 160 -333 149
-401 -7 -50 -36 -97 -77 -128 l-28 -21 -3085 0 c-1696 0 -3097 3 -3113 8 -38
9 -87 67 -101 118 -7 26 -10 125 -8 273 3 223 4 232 26 264 13 18 38 40 55 49
30 15 241 16 2692 17 2826 1 2677 -1 2726 45 44 42 53 123 19 178 -40 67 -43
67 -463 68 -399 2 -396 1 -397 46 0 9 -21 128 -46 265 -25 137 -49 272 -54
299 -12 68 -49 274 -55 305 -3 14 -12 63 -20 110 -8 47 -17 96 -20 110 -3 14
-12 63 -20 110 -8 47 -17 96 -20 110 -3 14 -8 43 -11 65 l-6 40 38 -1 c22 -1
71 -5 109 -9z"/>
<path d="M82 4213 c-51 -25 -77 -69 -77 -130 0 -87 61 -144 154 -145 58 0 102
22 135 65 29 39 29 124 0 164 -43 59 -142 81 -212 46z"/>
<path d="M520 4213 c-19 -10 -45 -34 -58 -53 -20 -29 -23 -44 -20 -88 4 -43
11 -59 38 -87 20 -21 48 -37 69 -42 20 -3 239 -6 487 -6 406 0 454 2 487 18
41 19 73 64 80 112 6 40 -27 109 -66 137 -28 20 -42 21 -505 24 -439 2 -480 1
-512 -15z"/>
<path d="M81 1878 c-50 -26 -75 -64 -77 -118 -3 -57 27 -112 73 -137 33 -17
155 -18 3423 -18 3268 0 3390 1 3423 18 40 22 77 82 77 126 0 45 -33 103 -72
126 -33 20 -55 20 -3422 20 -3245 1 -3391 0 -3425 -17z"/>
</g>
</svg>
